# xmcd CD database file
#
# Track frame offsets:
#	150
#	94460
#	119137
#	132065
#	154705
#	167437
#	193815
#	227773
#	254235
#	275524
#	303220
#	319919
#
# Disc length: 4427 seconds
#
# Revision: 0
# Processed by: cddbd v1.5.1PL2 Copyright (c) Steve Scherf et al.
# Submitted via: CDex 1.60beta1
#
DISCID=ae11490c
DTITLE=amrita - amrita...all these and the japanese soup warriors
DYEAR=1995
DGENRE=New Age
TTITLE0=sheikh
TTITLE1=yayli
TTITLE2=diwana
TTITLE3=soulus
TTITLE4=papasus
TTITLE5=often again
TTITLE6=sun
TTITLE7=epic song
TTITLE8=ginyar
TTITLE9=fumi
TTITLE10=plane shift
TTITLE11=yajli (deptford monkey chant mix)
EXTD=YEAR: 1995
EXTT0=
EXTT1=
EXTT2=
EXTT3=
EXTT4=
EXTT5=
EXTT6=
EXTT7=
EXTT8=
EXTT9=
EXTT10=
EXTT11=
PLAYORDER=
